<svg width="67" height="67" viewBox="0 0 67 67" fill="none" xmlns="http://www.w3.org/2000/svg">
<path d="M0 58.3609C0 63.1326 3.86794 67 8.63907 67H58.3607C63.1326 67 67 63.1321 67 58.3609V8.63934C67 3.86742 63.1321 0 58.3609 0H8.63934C3.86742 0 0 3.86794 0 8.63907V58.3607V58.3609Z" fill="#563D7C"/>
<path d="M27.7834 29.6365V20.1484H36.1351C36.9308 20.1484 37.6976 20.2146 38.4362 20.3473C39.1747 20.4798 39.8283 20.7163 40.3965 21.0574C40.9644 21.3984 41.419 21.8718 41.76 22.4777C42.1008 23.0839 42.2714 23.8604 42.2714 24.807C42.2714 26.5116 41.76 27.7427 40.7372 28.5001C39.7147 29.2578 38.4079 29.6365 36.8169 29.6365H27.7834ZM18.8633 13.2168V53.7832H38.5215C40.3397 53.7832 42.1105 53.556 43.8339 53.1014C45.5573 52.6468 47.0912 51.9462 48.4359 50.9993C49.7804 50.0524 50.8505 48.8307 51.6459 47.3347C52.4415 45.8385 52.8391 44.0677 52.8391 42.0223C52.8391 39.4845 52.2235 37.3161 50.9927 35.5171C49.7615 33.7178 47.896 32.4584 45.3961 31.7386C47.2142 30.8676 48.5875 29.7501 49.5155 28.3865C50.4433 27.023 50.9073 25.3187 50.9073 23.2731C50.9073 21.3793 50.5948 19.7886 49.9699 18.5006C49.3449 17.213 48.4642 16.1808 47.3278 15.4042C46.1917 14.6277 44.8281 14.069 43.2372 13.7282C41.6464 13.3872 39.8851 13.2168 37.9533 13.2168H18.8633ZM27.7834 46.8516V35.7157H37.4987C39.4305 35.7157 40.9835 36.1606 42.1578 37.051C43.3319 37.9411 43.9192 39.4277 43.9192 41.5109C43.9192 42.5717 43.7391 43.4427 43.3793 44.1245C43.0194 44.8062 42.5365 45.3462 41.9304 45.7437C41.3245 46.1415 40.6236 46.4255 39.8283 46.5961C39.0326 46.7663 38.1996 46.8516 37.3283 46.8516H27.7834Z" fill="white"/>
</svg>
