<svg width="65" height="65" viewBox="0 0 65 65" fill="none" xmlns="http://www.w3.org/2000/svg">
<path d="M64.9967 19.1099C64.9962 18.017 64.7335 17.0512 64.2022 16.2226C63.6803 15.4073 62.8988 14.7241 61.8505 14.184C53.1972 9.74458 44.5355 5.31873 35.885 0.874782C33.5529 -0.323155 31.2917 -0.279256 28.9769 0.935878C25.5326 2.74297 8.28834 11.5333 3.14977 14.1815C1.03356 15.2717 0.00381482 16.9399 0.00330618 19.1079C0 28.0359 0.00330618 36.9638 0 45.8918C0 46.9607 0.252033 47.9079 0.759913 48.7241C1.28203 49.5639 2.0745 50.2658 3.14697 50.8181C8.28579 53.4663 25.5324 62.256 28.9759 64.0638C31.2917 65.2796 33.5529 65.323 35.8858 64.1249C44.5365 59.6807 53.1987 55.2549 61.8533 50.8154C62.9258 50.2633 63.7182 49.5609 64.2403 48.7219C64.7475 47.9054 65 46.9585 65 45.8893C65 45.8893 65 28.0381 64.9967 19.1099Z" fill="#A179DC"/>
<path d="M32.5994 32.4128L0.759888 48.7241C1.28201 49.5639 2.07448 50.2658 3.14695 50.8182C8.28577 53.4663 25.5323 62.256 28.9758 64.0638C31.2917 65.2796 33.5529 65.3231 35.8858 64.1249C44.5365 59.6807 53.1987 55.2549 61.8532 50.8154C62.9257 50.2633 63.7182 49.5609 64.2403 48.7219L32.5994 32.4128Z" fill="#280068"/>
<path d="M64.9967 19.1098C64.9962 18.0169 64.7335 17.0511 64.2022 16.2225L32.5995 32.4129L64.2404 48.7218C64.7475 47.9053 64.9995 46.9583 65 45.8892C65 45.8892 65 28.038 64.9967 19.1098Z" fill="#390091"/>
<path d="M51.3455 26.3151V29.364H54.7723V26.3151H56.4856V29.364H59.9123V30.8884H56.4856V33.9371H59.9123V35.4616H56.4856V38.5105H54.7723V35.4616H51.3455V38.5105H49.6322V35.4616H46.2057V33.9371H49.6322V30.8884H46.2057V29.364H49.6322V26.3151H51.3455ZM54.7723 30.8882H51.3455V33.9371H54.7723V30.8884V30.8882Z" fill="white"/>
<path d="M32.6695 11.0032C41.6073 11.0032 49.4107 15.322 53.5905 21.7416L53.5498 21.6798L43.0336 27.0671C40.9619 23.946 37.1638 21.8396 32.8065 21.7961L32.6692 21.7954C26.0251 21.7954 20.6385 26.5881 20.6385 32.4997C20.6363 34.363 21.1835 36.1942 22.2252 37.8105C24.299 41.0317 28.1975 43.2042 32.6695 43.2042C37.1692 43.2042 41.0898 41.0041 43.1528 37.7485L43.1027 37.8266L53.6029 43.2388C49.4689 49.6041 41.7724 53.9096 32.9385 53.9954L32.6695 53.9967C23.7034 53.9967 15.8779 49.6512 11.7085 43.1976C9.6732 40.0471 8.50867 36.3947 8.50867 32.4997C8.50867 20.6276 19.3255 11.0029 32.6692 11.0029L32.6695 11.0032Z" fill="white"/>
</svg>
