<svg width="67" height="67" viewBox="0 0 67 67" fill="none" xmlns="http://www.w3.org/2000/svg">
<path d="M6.09535 60.3024L0 0H67L60.8965 60.2928L33.4593 67L6.09535 60.3024Z" fill="#1572B6"/>
<path d="M33.5 61.8746L55.6723 56.4548L60.8884 4.93176H33.5V61.8746Z" fill="#33A9DC"/>
<path d="M33.5 26.7786H44.5997L45.365 19.2052H33.5V11.8089H54.5325L54.3317 13.7926L52.2718 34.1749H33.5V26.7786Z" fill="white"/>
<path d="M33.5515 45.9857L33.5135 45.9953L24.1724 43.7699L23.5753 37.8715H15.1542L16.3293 49.4841L33.5108 53.6907L33.5515 53.6811V45.9857Z" fill="#EBEBEB"/>
<path d="M43.8859 33.861L42.8764 43.7651L33.5217 45.9904V53.6858L50.7167 49.484L50.8443 48.2349L52.3016 33.861H43.8859Z" fill="white"/>
<path d="M33.5298 11.8089V19.2052H13.2681L13.0998 17.5422L12.7172 13.7926L12.5164 11.8089H33.5298ZM33.5 26.7786V34.1749H24.2756L24.1073 32.5119L23.7274 28.7623L23.5265 26.7786H33.5Z" fill="#EBEBEB"/>
</svg>
