<svg width="34" height="74" viewBox="0 0 34 74" fill="none" xmlns="http://www.w3.org/2000/svg">
<path d="M25.6923 71.7239L26.4018 59.9009L28.361 56.5565C28.361 56.5565 23.9019 58.3806 16.4366 58.3806C8.97126 58.3806 4.57976 56.5902 4.57976 56.5902L6.77545 60.2385L7.55218 71.7239C7.55218 72.9552 11.6129 73.9533 16.6223 73.9533C21.6314 73.9533 25.6923 72.9552 25.6923 71.7239ZM23.4541 16.5122L24.9434 10.6255L33.1907 1.94739L31.017 0.0959473L22.2855 9.34033L20.5563 16.3733C19.2549 16.3297 17.9528 16.3081 16.6507 16.3084C7.45478 16.3084 0 17.3564 0 18.6489C0 19.9415 7.45478 20.9894 16.6507 20.9894C25.8464 20.9894 33.301 19.9415 33.301 18.6489C33.301 17.6971 29.258 16.8779 23.4541 16.5122Z" fill="#D34A47"/>
<path d="M22.5878 19.8088C22.5878 19.8088 22.2652 19.8811 21.3164 19.8852C20.3674 19.8891 19.6935 19.8791 19.4251 19.6346C19.3529 19.5689 19.3135 19.4386 19.3138 19.3503C19.3146 19.1823 19.4339 19.0834 19.5858 19.0214L19.7295 19.2468C19.667 19.2684 19.6313 19.2938 19.6312 19.321C19.6306 19.4486 20.6015 19.536 21.3441 19.5266C22.0869 19.5174 22.9843 19.4562 22.9851 19.3305C22.9851 19.2924 22.9172 19.2566 22.7992 19.2283L22.9422 19.0045C23.1347 19.0643 23.3027 19.1797 23.3023 19.3795C23.3004 19.7192 22.8682 19.7708 22.5878 19.8088Z" fill="white"/>
<path d="M33.1745 1.96457C33.3818 1.72505 33.0671 1.1124 32.4716 0.596358C31.8758 0.0805806 31.2247 -0.143511 31.017 0.0960082C30.8095 0.335528 31.1243 0.948185 31.7201 1.46396C32.3156 1.97987 32.967 2.20422 33.1745 1.96457ZM25.2956 42.8451C25.1001 40.9645 29.409 38.2409 28.3031 38.1537C25.9226 38.2898 24.7378 40.9435 23.5401 43.7228C23.1012 44.7414 21.5993 49.0849 20.6143 48.5502C19.6296 48.0157 21.891 44.444 22.5249 42.3228C21.7935 42.8591 19.1113 44.943 18.4201 42.9914C17.3088 43.9353 14.9341 44.4466 15.202 41.9673C14.6108 43.0146 13.2839 44.4767 11.6912 43.8691C9.59958 43.0714 12.9032 36.4087 13.7246 36.7448C14.5462 37.0808 13.5588 38.5986 13.3002 39.188C12.7315 40.4851 12.0745 42.1157 12.5134 42.4495C13.2653 43.0214 15.3114 40.2861 15.3569 40.226C15.7396 39.7204 16.8299 36.4128 17.7086 36.7926C18.5873 37.1724 15.5168 41.5395 16.6649 42.4062C16.8964 42.5812 17.8438 42.2984 18.4201 41.6749C18.793 41.2715 18.6647 40.3782 19.9077 37.414C21.1506 34.4499 22.2584 30.7586 23.1109 31.0398C23.9633 31.3209 23.2607 33.2155 22.9549 33.9217C21.5199 37.2366 19.0384 42.713 20.2086 42.2984C21.3789 41.8839 21.9883 41.8596 23.1343 40.5186C24.2802 39.1776 24.2274 36.9687 24.9912 37.0156C25.7552 37.0627 25.627 37.7709 25.4417 38.3102C26.1935 37.4499 29.0052 35.6381 29.684 37.4325C30.4881 39.557 25.6612 42.6256 26.8647 42.4691C28.0381 42.3165 29.9391 41.1125 30.7508 40.0178L32.9849 19.9325C32.9849 19.9325 30.7368 21.7929 16.4344 21.7929C2.13185 21.7929 0.116333 19.9712 0.116333 19.9712L2.01837 38.3043C3.02796 35.4349 5.42538 29.631 9.20434 29.8258C10.9233 29.9145 13.2181 33.2245 11.2524 33.3367C10.4204 33.384 10.3359 31.6845 9.35064 31.4349C8.63967 31.2547 7.64982 31.8327 7.0101 32.459C5.73432 33.7076 2.99044 38.6338 3.35298 41.0898C3.81489 44.2209 7.67375 40.0018 8.32667 38.7491C8.78649 37.8667 9.09714 35.2524 10.1028 35.5267C11.1086 35.801 10.0151 38.499 9.28606 40.8844C8.46709 43.5629 8.03656 46.3884 7.0101 46.0634C5.98351 45.7386 7.6557 42.2807 7.59517 41.6749C6.63029 42.5651 4.85273 44.8188 2.5786 43.7033L3.75985 55.0881C3.75985 55.0881 6.89936 57.5687 16.3568 57.5687C25.8143 57.5687 29.0701 55.1268 29.0701 55.1268L30.5369 41.9405C29.3368 43.1091 25.5387 45.1842 25.2956 42.8451Z" fill="#D34A47"/>
</svg>
