<svg width="67" height="67" viewBox="0 0 67 67" fill="none" xmlns="http://www.w3.org/2000/svg">
<path d="M6.09757 60.3024L0 0H67L60.8943 60.2928L33.4593 67L6.09757 60.3024Z" fill="#E44F26"/>
<path d="M33.5 61.8746L55.6705 56.4548L60.8861 4.93176H33.5V61.8746Z" fill="#F1662A"/>
<path d="M33.5 27.2953H22.4011L21.6359 19.7219H33.5V12.3256H12.4692L12.67 14.3116L14.7296 34.6916H33.5V27.2953ZM33.5 46.5027L33.462 46.5123L24.1216 44.2893L23.5246 38.391H15.1041L16.2791 50.0011L33.462 54.2077L33.5 54.1982V46.5027Z" fill="#EBEBEB"/>
<path d="M33.4702 27.2953V34.6916H43.7983L42.8268 44.2846L33.4702 46.5099V54.2053L50.6665 50.0011L50.7914 48.752L52.7615 29.2813L52.9677 27.2953H33.4702ZM33.4702 12.3256V19.7219H53.7303L53.8985 18.0612L54.2811 14.3116L54.4819 12.3256H33.4702Z" fill="white"/>
</svg>
