<svg width="65" height="65" viewBox="0 0 65 65" fill="none" xmlns="http://www.w3.org/2000/svg">
<path d="M20.9341 50.2682C20.9341 50.2682 17.5663 51.7127 23.331 52.2014C30.3149 52.789 33.8841 52.7048 41.5804 51.6304C41.5804 51.6304 43.604 52.5661 46.4296 53.3767C29.1768 58.8301 7.38266 53.0607 20.9341 50.2682ZM18.8258 43.1517C18.8258 43.1517 15.0484 45.214 20.8175 45.654C28.2778 46.2216 34.1693 46.2681 44.3642 44.8203C44.3642 44.8203 45.7743 45.8746 47.9915 46.4512C27.1316 50.9499 3.89745 46.806 18.8258 43.1517Z" fill="#5382A1"/>
<path d="M36.5988 31.08C40.8501 34.6896 35.4819 37.9379 35.4819 37.9379C35.4819 37.9379 46.2761 33.8282 41.3188 28.6817C36.6889 23.8827 33.1381 21.4979 52.3598 13.2762C52.3598 13.2762 22.1882 18.8337 36.5988 31.0798" fill="#E76F00"/>
<path d="M59.4172 55.532C59.4172 55.532 61.9095 57.0464 56.6723 58.2181C46.7138 60.4432 15.2234 61.1151 6.47542 58.3068C3.33088 57.298 9.22801 55.8978 11.0829 55.6039C13.0174 55.2945 14.1231 55.3522 14.1231 55.3522C10.6259 53.5352 -8.48126 58.9199 4.41768 60.4618C39.5946 64.6692 68.5416 58.5674 59.4172 55.532ZM22.5534 35.7784C22.5534 35.7784 6.53564 38.5844 16.8813 39.6031C21.2494 40.0344 29.9573 39.937 38.0686 39.4356C44.6976 39.0234 51.3539 38.1464 51.3539 38.1464C51.3539 38.1464 49.0165 38.8847 47.3254 39.7363C31.0594 42.8915 -0.363575 41.4237 8.6827 38.1963C16.3332 35.469 22.5536 35.7784 22.5536 35.7784H22.5534ZM51.2878 47.6239C67.8233 41.2869 60.1779 35.1972 54.8416 36.0177C53.5336 36.2184 52.9505 36.3923 52.9505 36.3923C52.9505 36.3923 53.4361 35.8314 54.3634 35.5886C64.9201 32.8513 73.0391 43.6618 50.9556 47.9433C50.9556 47.9435 51.2115 47.7748 51.2878 47.6239Z" fill="#5382A1"/>
<path d="M41.3188 0.000188195C41.3188 0.000188195 50.4763 6.75649 32.6333 17.1452C18.3253 25.479 29.3706 30.2306 32.6275 35.6595C24.2755 30.1021 18.1462 25.2097 22.2583 20.6564C28.2935 13.9722 45.0135 10.7316 41.3188 0" fill="#E76F00"/>
<path d="M24.1783 64.7956C40.05 65.5451 64.4228 64.3799 65 58.8411C65 58.8411 63.8905 60.941 51.8829 62.6084C38.336 64.4885 21.6281 64.2691 11.7183 63.064C11.7185 63.064 13.7469 64.3024 24.1785 64.7956" fill="#5382A1"/>
</svg>
