<svg width="60" height="60" viewBox="0 0 60 60" fill="none" xmlns="http://www.w3.org/2000/svg">
<path d="M0 0H60V60H0V0Z" fill="#F5DE19"/>
<path d="M40.305 46.8749C40.8162 47.9133 41.6104 48.7861 42.5962 49.3927C43.5819 49.9993 44.719 50.3151 45.8764 50.3035C48.2121 50.3035 49.7057 49.1356 49.7057 47.5177C49.7057 45.5892 48.1714 44.8992 45.6 43.7742L44.19 43.1699C40.1185 41.4363 37.4185 39.2656 37.4185 34.6756C37.4185 30.4477 40.6328 27.227 45.675 27.227C47.3072 27.1092 48.938 27.4745 50.364 28.2774C51.7899 29.0803 52.9479 30.2853 53.6935 31.742L49.2857 34.5599C48.9986 33.8376 48.4987 33.2196 47.8523 32.7879C47.2059 32.3562 46.4436 32.1312 45.6664 32.1427C45.3273 32.1088 44.9849 32.1459 44.6609 32.2516C44.3369 32.3573 44.0385 32.5293 43.7847 32.7567C43.5309 32.9841 43.3273 33.2619 43.1868 33.5723C43.0462 33.8828 42.9719 34.2191 42.9685 34.5599C42.9685 36.2506 44.0164 36.9363 46.4357 37.9885L47.8457 38.5927C52.6371 40.6477 55.3457 42.7413 55.3457 47.4492C55.3457 52.5256 51.3578 55.307 46.0028 55.307C43.9163 55.44 41.836 54.9663 40.0127 53.943C38.1895 52.9198 36.7013 51.3908 35.7278 49.5406L40.305 46.8749ZM20.3871 47.3635C21.2721 48.9342 22.0778 50.2627 24.015 50.2627C25.8664 50.2627 27.0364 49.5385 27.0364 46.7206V27.5485H32.6743V46.7956C32.6743 52.6327 29.2457 55.2899 24.255 55.2899C22.4909 55.3863 20.7389 54.9467 19.2293 54.0288C17.7197 53.1109 16.5232 51.7577 15.7971 50.147L20.3871 47.3635Z" fill="black"/>
</svg>
