<svg width="65" height="52" viewBox="0 0 65 52" fill="none" xmlns="http://www.w3.org/2000/svg">
<path d="M19.3362 34.3137L21.3116 41.8361C21.7554 43.5441 21.9405 44.7364 21.8664 45.4159C22.9468 42.02 23.7016 38.3192 24.1311 34.3137H26.5064C25.4851 40.8347 24.138 45.5734 22.4659 48.5295C21.1631 50.8075 19.7359 51.9465 18.1817 51.9465C17.7673 51.9465 17.2565 51.7996 16.6503 51.5078V49.9359C16.9465 49.9869 17.2939 50.0141 17.6936 50.0141C18.4186 50.0141 19.003 49.7783 19.4476 49.3076C19.9799 48.7341 20.2463 48.0895 20.2463 47.3751C20.2463 46.8873 20.0385 45.8862 19.6248 44.3718L16.8724 34.3137H19.3361H19.3362ZM4.21776 29.6902L7.83592 42.6464H7.85827L11.4986 29.6902H14.4729C15.1242 36.1155 15.5088 41.9945 15.6269 47.3234H13.1193C13.0311 42.342 12.7867 37.6578 12.3871 33.27H12.3652L8.54673 47.3234H6.63711L2.84172 33.27H2.81937C2.53779 37.4839 2.36057 42.1681 2.28668 47.3234H0C0.147773 41.0536 0.517588 35.1764 1.10944 29.6902H4.21789H4.21776Z" fill="#00758F"/>
<path d="M44.7507 29.4285C48.6427 29.4285 50.5888 32.3468 50.5888 38.1804C50.5888 41.3505 50.0035 43.745 48.8341 45.3627C48.6234 45.6583 48.3904 45.9137 48.1452 46.1503L50.8994 47.7486L50.8967 47.7484L49.9188 49.7304L46.332 47.2742C45.7375 47.4808 45.0833 47.5841 44.3705 47.5841C42.4594 47.5841 41.032 46.9304 40.0882 45.6248C39.0523 44.1804 38.5346 41.9066 38.5346 38.8071C38.5346 35.6549 39.1188 33.2695 40.2885 31.6497C41.3539 30.1681 42.8416 29.4283 44.7507 29.4283V29.4285ZM32.8323 29.4541C34.2234 29.4541 35.4882 29.891 36.6275 30.7616L36.0488 32.2749C35.0739 31.7886 34.1128 31.5444 33.165 31.5444C32.3959 31.5444 31.8033 31.7616 31.3901 32.1988C30.9748 32.6321 30.7178 33.1896 30.7178 33.8694C30.7178 34.9138 31.3518 35.8196 32.5224 36.5848C32.9059 36.8309 33.2881 37.0797 33.669 37.3315L33.7563 37.3891L33.8001 37.418L33.8876 37.4757L33.9312 37.5046L34.0186 37.5624C34.9047 38.1487 35.7385 38.7083 35.7385 38.7083C36.9091 39.6835 37.4925 40.7232 37.4925 42.4357C37.4925 43.9311 37.0256 45.1587 36.0948 46.1193C35.1633 47.0756 33.9119 47.555 32.3448 47.555C30.8792 47.555 29.4587 47.0032 28.0828 45.9086L28.7264 44.3939C29.9105 45.0905 30.982 45.4384 31.9442 45.4384C32.8466 45.4384 33.5529 45.2019 34.0639 44.735C34.5739 44.2646 34.8795 43.6086 34.8795 42.7767C34.8795 41.7297 34.2589 40.8347 33.1205 40.0839C32.7642 39.8528 32.4089 39.6195 32.0547 39.384L31.9675 39.3261C31.8073 39.2198 31.646 39.1123 31.4879 39.0069L31.4022 38.9497C30.6335 38.4366 29.9689 37.9882 29.9689 37.9882C28.8309 37.0113 28.2602 35.9631 28.2602 34.2359C28.2602 32.8075 28.6858 31.6529 29.5356 30.7745C30.3875 29.8943 31.4865 29.4541 32.8323 29.4541ZM55.1627 29.6901V45.1542H59.8902V47.3234H52.7651V29.6901H55.1627ZM62.5171 45.161V45.5275H61.9974V47.3214H61.6V45.5275H61.0601V45.161H62.5173H62.5171ZM63.4769 45.161L63.9759 46.6336L64.4344 45.161H64.9977V47.3214H64.6232V45.6772L64.1014 47.3214H63.8314L63.3087 45.6772H63.2886V47.3214H62.9343V45.161H63.477H63.4769ZM44.5059 31.597C42.2124 31.597 41.065 33.8185 41.065 38.2587C41.065 40.802 41.369 42.6463 41.976 43.7958C42.5381 44.8597 43.4186 45.3906 44.6174 45.3906C46.9109 45.3906 48.0582 43.1517 48.0582 38.6762C48.0582 36.1684 47.7541 34.3399 47.1479 33.1898C46.5852 32.1283 45.7051 31.597 44.5061 31.597H44.5059Z" fill="#F29111"/>
<path d="M38.4945 1.09261C39.2554 -1.10152 41.9157 0.56009 42.948 1.32653C43.2011 1.51829 43.4913 1.92341 43.7814 2.07315C44.234 2.09401 44.6862 2.13558 45.1395 2.15779C45.9898 2.39231 46.7863 2.58392 47.4564 3.0318C50.5703 5.18406 52.5974 7.3773 54.4629 11C54.8616 11.7674 55.0608 12.5977 55.3864 13.4281C55.8384 14.6658 56.3462 15.965 56.8707 17.1354C57.1056 17.6903 57.2873 18.3073 57.6134 18.7759C57.7408 18.9901 58.1024 19.0533 58.3186 19.1813C58.9163 19.5444 59.6405 19.82 60.2026 20.2462C61.2524 21.0144 62.2674 21.9298 63.1901 22.867C63.534 23.2288 63.7684 23.7409 64.096 24.1235V24.3166C63.8052 24.4214 63.5153 24.5286 63.2253 24.6146C62.5916 24.8056 62.0304 24.7624 61.4157 24.9536C61.0358 25.0829 60.5642 25.2535 60.1658 25.2969L60.2026 25.3404C60.437 26.1263 61.705 26.7655 62.2849 27.2356C62.9892 27.8322 63.6419 28.5557 64.1672 29.3867C64.3487 29.5987 64.5301 29.7917 64.7106 30.0031C64.8368 30.2174 64.8723 30.4945 65.0001 30.6855V30.7502C64.8586 30.6916 64.7569 30.5799 64.6606 30.4631L64.6031 30.3926C64.5456 30.3225 64.4875 30.2537 64.4214 30.1969C64.0218 29.8766 63.6249 29.4934 63.2253 29.1955C62.5382 28.6839 61.7413 28.3869 61.0358 27.8733C60.6369 27.5752 60.2567 27.2356 59.8765 26.8944C59.5318 26.5954 59.1522 26.0212 58.9356 25.595C58.808 25.3596 58.7905 25.0829 58.6448 24.9126C58.6708 24.6282 58.8928 24.5437 59.1169 24.4743L59.1685 24.4583C59.2458 24.4348 59.3214 24.4112 59.3875 24.3801C60.3287 23.9111 61.4508 23.7409 62.8999 23.7835C62.8453 23.3565 61.9399 22.8244 61.6508 22.5687C61.0706 22.0779 60.4563 21.5658 59.8408 21.1192C59.5147 20.8852 58.9526 20.7145 58.5913 20.5233C58.1024 20.2888 57.0158 20.0544 56.7449 19.6077C56.2847 18.9036 55.9541 18.0637 55.6332 17.2153L55.5459 16.9837C55.5167 16.9066 55.4875 16.8294 55.4583 16.7523C55.0789 15.7307 54.6077 14.6655 54.2274 13.6194C54.0286 13.1091 53.9374 12.6612 53.7196 12.1717C52.3984 9.16825 50.443 6.65362 48.0721 4.88518C47.293 4.30975 46.4243 3.77723 45.4653 3.41532C44.9218 3.22267 44.2695 3.3292 43.6905 3.18139H43.3094C42.9841 3.07382 42.7125 2.66914 42.4588 2.45578C41.8983 2.00909 41.3369 1.70916 40.6666 1.39045C40.4317 1.26261 39.761 0.964915 39.5269 1.19929C39.3819 1.24205 39.3084 1.30627 39.2728 1.47702C39.1285 1.7318 39.2554 2.11562 39.3451 2.35059C39.617 3.0315 39.9969 3.43618 40.3417 4.01161C40.6484 4.52192 41.0294 5.09735 41.2469 5.65221C41.7161 6.84493 41.9346 8.16639 42.3694 9.35896C42.5306 9.80744 42.7857 10.3178 43.0204 10.7223C43.2193 11.0434 43.581 11.2755 43.6905 11.682C43.9086 12.1081 43.3639 13.5142 43.2379 13.9607C42.7662 15.708 42.8577 18.1368 43.4008 19.6514L43.4297 19.7312L43.4587 19.8121C43.657 20.3669 43.8692 20.9642 44.3965 21.1193C44.4328 21.077 44.3965 21.0992 44.4684 21.077C44.596 19.9047 44.6319 18.7757 44.9762 17.8585C45.1752 17.285 45.5724 16.8796 45.8447 16.4114C46.0263 16.539 46.0263 16.9235 46.1344 17.178C46.3701 17.8381 46.6231 18.5618 46.9136 19.2238C47.5097 20.5871 48.1805 21.9088 48.9406 23.1014C49.1952 23.5274 49.5563 23.9963 49.8821 24.3799C50.0272 24.5285 50.1897 24.6143 50.2988 24.8055H50.3343V24.8699C49.7912 24.6349 49.4469 23.9754 49.0137 23.5904C48.1982 22.8667 47.2215 21.78 46.6594 20.7371C46.4243 20.1385 46.1701 19.5647 45.9167 18.969V18.9259C45.8084 19.0961 45.8447 19.265 45.7905 19.5225C45.5554 20.5871 45.7364 21.8016 44.9218 22.1845C43.9983 22.633 43.3095 21.4608 43.0204 20.9281C42.0967 19.1601 41.8437 16.1775 42.4951 13.7699C42.6398 13.2369 42.6595 12.5977 42.9121 12.1722C42.8575 11.7875 42.6049 11.6823 42.4588 11.4466C42.2054 11.0437 41.9884 10.5743 41.79 10.1269C41.4089 9.25288 41.1377 8.20856 40.8484 7.27121C40.7212 6.88844 40.6847 6.50418 40.5579 6.14182C40.3416 5.58874 39.9428 5.03387 39.6352 4.54457C39.2187 3.8413 38.0055 2.47828 38.4945 1.09261ZM44.4324 5.26676C44.4807 5.32367 44.5391 5.37344 44.5996 5.42246L44.6725 5.48116C44.7696 5.56013 44.8636 5.64327 44.9213 5.75651C45.0127 5.9064 45.0297 6.05436 45.1391 6.20454C45.1391 6.71665 45.0127 7.05711 44.7574 7.26928C44.7574 7.26928 44.74 7.29163 44.7221 7.31249C44.5774 6.97113 44.4505 6.63157 44.3048 6.29052C44.1253 5.99282 43.8715 5.75666 43.7253 5.4165H43.6901V5.37374C43.9086 5.31041 44.1253 5.26676 44.4324 5.26676Z" fill="#00758F"/>
</svg>
