<svg width="75" height="45" viewBox="0 0 75 45" fill="none" xmlns="http://www.w3.org/2000/svg">
<path d="M37.5 45C58.2107 45 75 34.9264 75 22.5C75 10.0736 58.2107 0 37.5 0C16.7893 0 0 10.0736 0 22.5C0 34.9264 16.7893 45 37.5 45Z" fill="url(#paint0_radial_412_2301)"/>
<path d="M37.5 43.3289C57.4015 43.3289 73.5348 34.0034 73.5348 22.4999C73.5348 10.9964 57.4015 1.67102 37.5 1.67102C17.5985 1.67102 1.46521 10.9964 1.46521 22.4999C1.46521 34.0034 17.5985 43.3289 37.5 43.3289Z" fill="#6280B6"/>
<path d="M44.7992 29.2209L46.5858 18.7301C46.8403 17.8322 46.8822 16.8736 46.7072 15.9514C46.5322 15.0291 46.1466 14.176 45.5893 13.4786C44.034 12.2189 42.1295 11.6487 40.2322 11.8747H37.1438L38.0304 6.6812C38.0466 6.5845 38.0438 6.48492 38.0224 6.38957C38.0009 6.29422 37.9613 6.20545 37.9062 6.12959C37.8512 6.05372 37.7822 5.99264 37.7042 5.95069C37.6261 5.90874 37.5408 5.88696 37.4545 5.8869H33.1688C33.0327 5.88686 32.9009 5.94077 32.7958 6.03942C32.6907 6.13807 32.619 6.27531 32.5929 6.42764L30.6938 17.5661C30.5477 16.3752 30.1041 15.2574 29.4161 14.3462C28.6501 13.4712 27.7261 12.7974 26.7083 12.3716C25.6905 11.9458 24.6036 11.7783 23.5233 11.8808H15.2679C15.1318 11.8807 15 11.9347 14.8949 12.0333C14.7898 12.132 14.7181 12.2692 14.692 12.4215L10.8509 34.9673C10.8348 35.064 10.8375 35.1636 10.859 35.259C10.8805 35.3543 10.9201 35.4431 10.9751 35.519C11.0301 35.5948 11.0991 35.6559 11.1772 35.6979C11.2553 35.7398 11.3405 35.7616 11.4268 35.7616H15.7206C15.8567 35.7617 15.9885 35.7078 16.0936 35.6091C16.1987 35.5105 16.2704 35.3732 16.2965 35.2209L17.2259 29.7678H20.4402C21.8594 29.811 23.276 29.6049 24.6402 29.1568C25.7905 28.7227 26.8424 28.0039 27.7206 27.0519C28.4402 26.3042 29.0546 25.4345 29.542 24.4735L28.7733 28.9796C28.7571 29.0763 28.7599 29.1758 28.7813 29.2712C28.8028 29.3665 28.8424 29.4553 28.8974 29.5312C28.9524 29.607 29.0214 29.6681 29.0995 29.7101C29.1776 29.752 29.2629 29.7738 29.3492 29.7739H33.6349C33.771 29.7739 33.9028 29.72 34.0079 29.6213C34.113 29.5227 34.1847 29.3855 34.2108 29.2331L36.3188 16.8574H39.2492C40.4974 16.8574 40.8563 17.1415 40.9634 17.2637C41.0706 17.3859 41.2313 17.7678 41.0304 19.002L39.3295 28.9765C39.3134 29.0732 39.3161 29.1728 39.3376 29.2681C39.359 29.3635 39.3987 29.4523 39.4537 29.5281C39.5087 29.604 39.5777 29.6651 39.6558 29.707C39.7339 29.749 39.8191 29.7708 39.9054 29.7708H44.2447C44.3782 29.7649 44.5059 29.7071 44.6068 29.6071C44.7076 29.5071 44.7755 29.3709 44.7992 29.2209ZM24.9911 20.5631C24.8601 21.8456 24.3263 23.0307 23.4885 23.8991C22.436 24.6458 21.2019 24.9894 19.9661 24.8798H18.059L19.4384 16.781H21.9054C23.7188 16.781 24.4474 17.224 24.742 17.5936C24.9668 18.0397 25.1053 18.5355 25.1482 19.0476C25.1912 19.5598 25.1376 20.0765 24.9911 20.5631ZM63.0697 14.3492C62.3037 13.4743 61.3796 12.8005 60.3619 12.3747C59.3441 11.9489 58.2572 11.7814 57.1768 11.8838H48.8974C48.7613 11.8838 48.6294 11.9377 48.5244 12.0364C48.4193 12.135 48.3476 12.2723 48.3215 12.4246L44.4804 34.9704C44.4643 35.0671 44.467 35.1667 44.4885 35.262C44.5099 35.3574 44.5496 35.4462 44.6046 35.522C44.6596 35.5979 44.7286 35.659 44.8067 35.7009C44.8848 35.7429 44.97 35.7646 45.0563 35.7647H49.3635C49.4995 35.7647 49.6314 35.7108 49.7365 35.6122C49.8415 35.5135 49.9132 35.3763 49.9393 35.224L50.8688 29.7708H54.0831C55.5023 29.814 56.9189 29.608 58.2831 29.1598C59.4334 28.7258 60.4853 28.007 61.3635 27.0549C62.8674 25.5091 63.8807 23.4392 64.2456 21.168C64.5338 20.006 64.5775 18.7829 64.3732 17.5981C64.1688 16.4132 63.7222 15.3001 63.0697 14.3492ZM58.6045 20.5631C58.4735 21.8456 57.9397 23.0307 57.1018 23.8991C56.0468 24.6466 54.8096 24.9892 53.5715 24.8767H51.6697L53.0492 16.7779H55.5161C57.3295 16.7779 58.0581 17.2209 58.3527 17.5906C58.5783 18.0368 58.7175 18.533 58.7609 19.0457C58.8044 19.5584 58.751 20.0758 58.6045 20.5631Z" fill="white"/>
<path d="M21.9054 16.1089C22.4833 16.0259 23.07 16.0744 23.6313 16.2516C24.1927 16.4289 24.7177 16.7313 25.176 17.1414C25.4716 17.6607 25.6602 18.2496 25.7275 18.864C25.7948 19.4783 25.739 20.1021 25.5643 20.6883C25.4112 22.1317 24.7994 23.461 23.8447 24.4245C22.6933 25.2704 21.3322 25.6671 19.9661 25.5549H17.3465L18.9536 16.118L21.9054 16.1089ZM11.4135 35.0987H15.7206L16.7411 29.1048H20.4295C21.7871 29.147 23.1424 28.9502 24.4474 28.5213C25.5184 28.1179 26.4974 27.448 27.3134 26.56C28.726 25.1107 29.6774 23.1683 30.0188 21.0366C30.2891 19.9765 30.3366 18.8587 30.1574 17.7738C29.9783 16.6889 29.5775 15.6674 28.9876 14.7922C28.2762 13.9897 27.42 13.3739 26.4786 12.9877C25.5371 12.6015 24.5332 12.4541 23.5367 12.5559H15.2679L11.4135 35.0987ZM33.1795 6.55896H37.4652L36.4286 12.5529H40.2349C41.9831 12.3442 43.7394 12.8509 45.1902 13.9826C45.6704 14.6051 45.9987 15.3607 46.1421 16.1736C46.2855 16.9865 46.239 17.828 46.0072 18.6139L44.2206 29.1048H39.884L41.5849 19.1302C41.7033 18.7495 41.7456 18.3434 41.7085 17.9416C41.6714 17.5399 41.556 17.1527 41.3706 16.8085C40.7503 16.3017 39.9841 16.0832 39.2277 16.1975H35.8126L33.6108 29.114H29.3251L33.1795 6.55896ZM55.5188 16.1089C56.0967 16.0259 56.6833 16.0744 57.2447 16.2516C57.8061 16.4289 58.3311 16.7313 58.7893 17.1414C59.085 17.6607 59.2736 18.2496 59.3409 18.864C59.4082 19.4783 59.3524 20.1021 59.1777 20.6883C59.0246 22.1317 58.4128 23.461 57.4581 24.4245C56.3044 25.2723 54.9402 25.6691 53.5715 25.5549H50.9518L52.559 16.118L55.5188 16.1089ZM45.0268 35.0987H49.334L50.3545 29.1048H54.0429C55.4005 29.147 56.7558 28.9502 58.0608 28.5213C59.1318 28.1179 60.1108 27.448 60.9268 26.56C62.3394 25.1107 63.2908 23.1683 63.6322 21.0366C63.9025 19.9765 63.95 18.8587 63.7708 17.7738C63.5917 16.6889 63.1909 15.6674 62.6009 14.7922C61.8896 13.9897 61.0334 13.3739 60.092 12.9877C59.1505 12.6015 58.1466 12.4541 57.1501 12.5559H48.8679L45.0268 35.0987Z" fill="#000004"/>
<defs>
<radialGradient id="paint0_radial_412_2301" cx="0" cy="0" r="1" gradientUnits="userSpaceOnUse" gradientTransform="translate(22.5161 7.91242) scale(49.2429 56.1629)">
<stop stop-color="white"/>
<stop offset="0.5" stop-color="#4C6B96"/>
<stop offset="1" stop-color="#231F20"/>
</radialGradient>
</defs>
</svg>
