<svg width="57" height="57" viewBox="0 0 57 57" fill="none" xmlns="http://www.w3.org/2000/svg">
<path d="M43.9673 37.3537L11.5664 56.5934L53.5197 53.7463L56.7507 11.443L43.9671 37.3535L43.9673 37.3537Z" fill="url(#paint0_linear_412_1620)"/>
<path d="M53.5881 53.7173L49.9822 28.8295L40.1602 41.7992L53.5881 53.7175V53.7173Z" fill="url(#paint1_linear_412_1620)"/>
<path d="M53.6369 53.7174L27.2196 51.6438L11.7063 56.5391L53.6369 53.7174Z" fill="url(#paint2_linear_412_1620)"/>
<path d="M11.7438 56.5447L18.3433 34.9248L3.8208 38.0297L11.7436 56.5445L11.7438 56.5447Z" fill="url(#paint3_linear_412_1620)"/>
<path d="M40.1579 41.8705L34.0854 18.0854L16.7078 34.375L40.1579 41.8709V41.8705Z" fill="url(#paint4_linear_412_1620)"/>
<path d="M55.373 18.4204L38.9461 5.00403L34.3718 19.7924L55.373 18.4204Z" fill="url(#paint5_linear_412_1620)"/>
<path d="M47.691 0.220398L38.0298 5.5597L31.9343 0.148926L47.691 0.220621V0.220398Z" fill="url(#paint6_linear_412_1620)"/>
<path d="M0 45.282L4.04722 37.9008L0.773285 29.1072L0 45.282Z" fill="url(#paint7_linear_412_1620)"/>
<path d="M0.555664 28.8295L3.84964 38.1729L18.1627 34.9617L34.5034 19.775L39.1151 5.12711L31.8538 0L19.5086 4.62012C15.619 8.23784 8.07165 15.3958 7.79956 15.5303C7.53015 15.6679 2.81562 24.5788 0.555664 28.8295Z" fill="white"/>
<path d="M12.1219 12.0444C20.5517 3.6863 31.4188 -1.25177 35.5892 2.95598C39.7573 7.16374 35.3371 17.3892 26.9074 25.7446C18.4776 34.0998 7.74513 39.31 3.57746 35.1022C-0.592896 30.8973 3.69212 20.3998 12.1219 12.0444Z" fill="url(#paint8_linear_412_1620)"/>
<path d="M11.7437 56.536L18.2915 34.8473L40.0373 41.8334C32.1748 49.2062 23.43 55.439 11.7437 56.536Z" fill="url(#paint9_linear_412_1620)"/>
<path d="M34.5322 19.7323L40.1149 41.845C46.6828 34.939 52.5774 27.5148 55.4644 18.3318L34.5325 19.7323H34.5322Z" fill="url(#paint10_linear_412_1620)"/>
<path d="M55.4073 18.4433C57.6417 11.7009 58.1571 2.028 47.6219 0.232056L38.9773 5.00692L55.4073 18.4433Z" fill="url(#paint11_linear_412_1620)"/>
<path d="M0 45.1847C0.309492 56.3128 8.33803 56.4787 11.758 56.5763L3.85819 38.127L0 45.1847Z" fill="#9E1209"/>
<path d="M34.5635 19.7668C39.6104 22.8688 49.782 29.0987 49.9882 29.2132C50.3088 29.3935 54.3734 22.3589 55.2959 18.3832L34.5635 19.7668Z" fill="url(#paint12_radial_412_1620)"/>
<path d="M18.283 34.8473L27.0362 51.7353C32.2121 48.9283 36.2653 45.5083 39.9772 41.8449L18.283 34.8473Z" fill="url(#paint13_radial_412_1620)"/>
<path d="M3.82394 38.1499L2.58374 52.9183C4.92386 56.1149 8.14347 56.3928 11.5203 56.1437C9.07707 50.0627 4.19622 37.9037 3.82394 38.1499Z" fill="url(#paint14_linear_412_1620)"/>
<path d="M38.926 5.04411L56.3155 7.48442C55.3872 3.55186 52.5372 1.01403 47.6793 0.220703L38.926 5.04411Z" fill="url(#paint15_linear_412_1620)"/>
<defs>
<linearGradient id="paint0_linear_412_1620" x1="49.8601" y1="61.7401" x2="37.9017" y2="40.5953" gradientUnits="userSpaceOnUse">
<stop stop-color="#FB7655"/>
<stop offset="0.41" stop-color="#E42B1E"/>
<stop offset="0.99" stop-color="#990000"/>
<stop offset="1" stop-color="#990000"/>
</linearGradient>
<linearGradient id="paint1_linear_412_1620" x1="55.824" y1="43.9838" x2="39.0135" y2="40.7" gradientUnits="userSpaceOnUse">
<stop stop-color="#871101"/>
<stop offset="0.99" stop-color="#911209"/>
<stop offset="1" stop-color="#911209"/>
</linearGradient>
<linearGradient id="paint2_linear_412_1620" x1="43.4788" y1="62.3806" x2="43.2622" y2="51.7181" gradientUnits="userSpaceOnUse">
<stop stop-color="#871101"/>
<stop offset="0.99" stop-color="#911209"/>
<stop offset="1" stop-color="#911209"/>
</linearGradient>
<linearGradient id="paint3_linear_412_1620" x1="11.0838" y1="36.4888" x2="16.082" y2="51.1449" gradientUnits="userSpaceOnUse">
<stop stop-color="white"/>
<stop offset="0.23" stop-color="#E57252"/>
<stop offset="0.46" stop-color="#DE3B20"/>
<stop offset="0.99" stop-color="#A60003"/>
<stop offset="1" stop-color="#A60003"/>
</linearGradient>
<linearGradient id="paint4_linear_412_1620" x1="27.5356" y1="21.9739" x2="28.4422" y2="37.8371" gradientUnits="userSpaceOnUse">
<stop stop-color="white"/>
<stop offset="0.23" stop-color="#E4714E"/>
<stop offset="0.56" stop-color="#BE1A0D"/>
<stop offset="0.99" stop-color="#A80D00"/>
<stop offset="1" stop-color="#A80D00"/>
</linearGradient>
<linearGradient id="paint5_linear_412_1620" x1="42.1349" y1="7.31013" x2="43.4605" y2="18.8311" gradientUnits="userSpaceOnUse">
<stop stop-color="white"/>
<stop offset="0.18" stop-color="#E46342"/>
<stop offset="0.4" stop-color="#C82410"/>
<stop offset="0.99" stop-color="#A80D00"/>
<stop offset="1" stop-color="#A80D00"/>
</linearGradient>
<linearGradient id="paint6_linear_412_1620" x1="34.0787" y1="3.30589" x2="35.9477" y2="-4.61931" gradientUnits="userSpaceOnUse">
<stop stop-color="white"/>
<stop offset="0.54" stop-color="#C81F11"/>
<stop offset="0.99" stop-color="#BF0905"/>
<stop offset="1" stop-color="#BF0905"/>
</linearGradient>
<linearGradient id="paint7_linear_412_1620" x1="1.118" y1="32.5257" x2="6.0058" y2="35.5895" gradientUnits="userSpaceOnUse">
<stop stop-color="white"/>
<stop offset="0.31" stop-color="#DE4024"/>
<stop offset="0.99" stop-color="#BF190B"/>
<stop offset="1" stop-color="#BF190B"/>
</linearGradient>
<linearGradient id="paint8_linear_412_1620" x1="-5.31495" y1="44.427" x2="38.6084" y2="-0.867308" gradientUnits="userSpaceOnUse">
<stop stop-color="#BD0012"/>
<stop offset="0.07" stop-color="white"/>
<stop offset="0.17" stop-color="white"/>
<stop offset="0.27" stop-color="#C82F1C"/>
<stop offset="0.33" stop-color="#820C01"/>
<stop offset="0.46" stop-color="#A31601"/>
<stop offset="0.72" stop-color="#B31301"/>
<stop offset="0.99" stop-color="#E82609"/>
<stop offset="1" stop-color="#E82609"/>
</linearGradient>
<linearGradient id="paint9_linear_412_1620" x1="28.378" y1="48.9894" x2="15.948" y2="43.7687" gradientUnits="userSpaceOnUse">
<stop stop-color="#8C0C01"/>
<stop offset="0.54" stop-color="#990C00"/>
<stop offset="0.99" stop-color="#A80D0E"/>
<stop offset="1" stop-color="#A80D0E"/>
</linearGradient>
<linearGradient id="paint10_linear_412_1620" x1="51.1354" y1="33.0872" x2="38.3316" y2="23.9927" gradientUnits="userSpaceOnUse">
<stop stop-color="#7E110B"/>
<stop offset="0.99" stop-color="#9E0C00"/>
<stop offset="1" stop-color="#9E0C00"/>
</linearGradient>
<linearGradient id="paint11_linear_412_1620" x1="55.46" y1="13.7306" x2="49.4388" y2="7.61831" gradientUnits="userSpaceOnUse">
<stop stop-color="#79130D"/>
<stop offset="0.99" stop-color="#9E120B"/>
<stop offset="1" stop-color="#9E120B"/>
</linearGradient>
<radialGradient id="paint12_radial_412_1620" cx="0" cy="0" r="1" gradientUnits="userSpaceOnUse" gradientTransform="translate(41.1981 22.7393) scale(14.4242 7.53712)">
<stop stop-color="#A80D00"/>
<stop offset="0.99" stop-color="#7E0E08"/>
<stop offset="1" stop-color="#7E0E08"/>
</radialGradient>
<radialGradient id="paint13_radial_412_1620" cx="0" cy="0" r="1" gradientUnits="userSpaceOnUse" gradientTransform="translate(21.2223 41.7477) scale(19.1747 14.9267)">
<stop stop-color="#A30C00"/>
<stop offset="0.99" stop-color="#800E08"/>
<stop offset="1" stop-color="#800E08"/>
</radialGradient>
<linearGradient id="paint14_linear_412_1620" x1="7.63914" y1="56.5235" x2="-3.15634" y2="47.5624" gradientUnits="userSpaceOnUse">
<stop stop-color="#8B2114"/>
<stop offset="0.43" stop-color="#9E100A"/>
<stop offset="0.99" stop-color="#B3100C"/>
<stop offset="1" stop-color="#B3100C"/>
</linearGradient>
<linearGradient id="paint15_linear_412_1620" x1="44.2941" y1="2.80651" x2="47.3582" y2="10.558" gradientUnits="userSpaceOnUse">
<stop stop-color="#B31000"/>
<stop offset="0.44" stop-color="#910F08"/>
<stop offset="0.99" stop-color="#791C12"/>
<stop offset="1" stop-color="#791C12"/>
</linearGradient>
</defs>
</svg>
