<svg width="70" height="56" viewBox="0 0 70 56" fill="none" xmlns="http://www.w3.org/2000/svg">
<path d="M60.2755 32.1897C57.8335 32.2031 55.711 32.8305 53.9339 33.7579C53.2816 32.3804 52.6296 31.1532 52.5147 30.2529C52.3866 29.2029 52.2333 28.5618 52.3866 27.3071C52.5402 26.0524 53.2306 24.2657 53.2177 24.1294C53.2051 23.9931 53.0642 23.352 51.6578 23.3385C50.2515 23.3248 49.0368 23.6249 48.8961 24.0203C48.7555 24.4157 48.487 25.316 48.308 26.2431C48.065 27.6072 45.4953 32.4757 44.0251 35.0261C43.5518 34.0308 43.1427 33.1578 43.053 32.4623C42.9253 31.4123 42.7717 30.7712 42.9253 29.5165C43.0788 28.2618 43.7692 26.4753 43.7563 26.3387C43.7435 26.2024 43.6028 25.5613 42.1964 25.5479C40.7898 25.5341 39.5752 25.8342 39.4348 26.2296C39.2941 26.6254 39.1406 27.5525 38.8466 28.4527C38.5524 29.353 35.1387 37.4814 34.2437 39.5814C33.882 40.4314 33.5026 41.2726 33.1058 42.1046C33.1058 42.1046 33.0929 42.1455 33.0545 42.2136C32.9299 42.4745 32.8021 42.7337 32.6712 42.9911V43.0045C32.4793 43.373 32.2747 43.7137 32.1724 43.7137C32.0957 43.7137 31.955 42.7319 32.1979 41.3953C32.7093 38.5723 33.924 34.1808 33.9114 34.0308C33.9114 33.9489 34.1414 33.1853 33.1187 32.7896C32.1212 32.3941 31.7633 33.0487 31.6737 33.0487C31.5843 33.0487 31.5201 33.2806 31.5201 33.2806C31.5201 33.2806 32.6328 28.3436 29.3979 28.3436C27.3779 28.3436 24.5904 30.703 23.2096 32.8305C21.6398 33.7417 20.0715 34.6555 18.5044 35.5719C17.7504 36.022 16.9703 36.4721 16.2415 36.8947C16.1902 36.8403 16.1392 36.7719 16.0879 36.7175C12.1754 32.2578 4.93889 29.1073 5.24571 23.1203C5.36088 20.9382 6.06391 15.2101 19.1438 8.25476C29.9092 2.5948 38.4759 4.16305 39.959 7.64086C42.0813 12.6053 35.369 21.8247 24.2452 23.161C20.0004 23.6658 17.7756 21.92 17.2132 21.2655C16.6251 20.5834 16.5354 20.5425 16.318 20.6791C15.9601 20.8838 16.1902 21.4974 16.318 21.8519C16.6506 22.779 18.0185 24.4157 20.3327 25.2206C22.3785 25.9296 27.3521 26.3253 33.3742 23.8431C40.1123 21.0607 45.3801 13.328 43.8331 6.85001C42.2858 0.27636 32.0573 -1.89204 22.3785 1.77646C16.6251 3.9589 10.3855 7.39547 5.89775 11.8689C0.566035 17.1875 -0.277936 21.8109 0.0672749 23.7477C1.30773 30.6211 10.1938 35.0945 13.7482 38.4086C13.5692 38.5177 13.4027 38.6133 13.2623 38.6952C11.485 39.6361 4.70857 43.4137 3.0209 47.4097C1.10318 51.9375 3.328 55.1837 4.79823 55.6198C9.36275 56.9701 14.055 54.5426 16.5738 50.5328C19.0925 46.5233 18.7857 41.3134 17.6223 38.9268C17.6094 38.8996 17.5968 38.8721 17.571 38.8449C18.0314 38.5586 18.5044 38.2585 18.9648 37.9722C19.8109 37.4387 20.6678 36.9248 21.5348 36.4309C21.0999 37.6993 20.7802 39.2132 20.6269 41.3953C20.435 43.9594 21.4194 47.2869 22.7108 48.596C23.2863 49.1693 23.9639 49.1827 24.3988 49.1827C25.9074 49.1827 26.5852 47.8461 27.3395 46.2641C28.26 44.3277 29.091 42.0774 29.091 42.0774C29.091 42.0774 28.0554 48.1599 30.8684 48.1599C31.8911 48.1599 32.9268 46.7414 33.3871 46.0187V46.0322C33.3871 46.0322 33.4126 45.9912 33.4639 45.8959C33.5662 45.7187 33.6301 45.6093 33.6301 45.6093V45.5824C34.0392 44.8184 34.9599 43.0864 36.3279 40.2087C38.0923 36.4993 39.7929 31.8624 39.7929 31.8624C39.7929 31.8624 39.9464 32.9943 40.4704 34.8764C40.7775 35.981 41.4164 37.1948 41.928 38.3676C41.5189 38.9815 41.2631 39.3223 41.2631 39.3223L41.276 39.336C40.9434 39.7996 40.5856 40.3041 40.1891 40.7954C38.7953 42.5681 37.1334 44.6005 36.9031 45.1866C36.6344 45.8822 36.6986 46.387 37.2102 46.7961C37.5809 47.0962 38.2456 47.1369 38.9234 47.0962C40.1765 47.0006 41.0585 46.6733 41.4931 46.4689C42.171 46.2097 42.9636 45.814 43.7051 45.2276C45.0733 44.1501 45.9041 42.6091 45.8276 40.5773C45.7892 39.4588 45.444 38.3404 45.022 37.2901C45.1501 37.0994 45.265 36.9085 45.393 36.7175C47.5537 33.3488 49.2287 29.6528 49.2287 29.6528C49.2287 29.6528 49.3823 30.7846 49.9063 32.667C50.1621 33.6216 50.6863 34.6582 51.1464 35.6672C49.1136 37.4267 47.8605 39.4723 47.413 40.8089C46.6077 43.2911 47.234 44.4093 48.4231 44.6684C48.96 44.7912 49.7272 44.5183 50.2899 44.2592C51.0058 44.0138 51.8498 43.5912 52.6553 42.9636C54.0236 41.8864 55.3402 40.386 55.2635 38.3542C55.2251 37.4267 54.995 36.5127 54.6753 35.6263C56.4014 34.8629 58.6262 34.44 61.4644 34.7945C67.5507 35.5581 68.7525 39.6086 68.5221 41.3137C68.2921 43.0182 67.0135 43.9457 66.5918 44.232C66.1696 44.5186 66.0292 44.614 66.0676 44.8184C66.1186 45.1185 66.3231 45.105 66.6812 45.0504C67.18 44.955 69.8778 43.6728 69.9927 40.536C70.1846 36.5265 66.6044 32.1487 60.2755 32.1897ZM13.3262 49.0736C11.306 51.4193 8.49327 52.3058 7.27859 51.5559C5.97452 50.751 6.4859 47.2869 8.96626 44.805C10.4749 43.2911 12.4184 41.8861 13.7098 41.0271C14.0038 40.8361 14.4386 40.5635 14.9629 40.2225C15.0523 40.1678 15.1036 40.1406 15.1036 40.1406L15.4104 39.9359C16.318 43.4818 15.4488 46.6052 13.3262 49.0736ZM28.0299 38.4086C27.3266 40.2362 25.8564 44.9141 24.9614 44.6549C24.1942 44.4367 23.7209 40.8908 24.8079 37.3858C25.3576 35.6263 26.521 33.526 27.1988 32.708C28.2984 31.3985 29.513 30.9619 29.807 31.4942C30.178 32.1897 28.4645 37.2629 28.0299 38.4086ZM40.1636 44.6002C39.8694 44.764 39.5883 44.8731 39.4603 44.7912C39.3709 44.7365 39.5883 44.5183 39.5883 44.5183C39.5883 44.5183 41.1098 42.7729 41.7106 41.9817C42.0561 41.5181 42.4649 40.9727 42.8998 40.3588V40.536C42.8998 42.6228 41.0073 44.0276 40.1633 44.6002H40.1636ZM49.5227 42.3227C49.3052 42.159 49.3436 41.6135 50.0724 39.9087C50.3537 39.2404 51.0184 38.1222 52.1566 37.0448C52.2843 37.4811 52.374 37.904 52.3611 38.2995C52.3482 40.9317 50.5841 41.9136 49.5227 42.3227Z" fill="#CD6799"/>
<path d="M60.2755 32.1897C57.8335 32.2031 55.711 32.8305 53.9339 33.7579C53.2816 32.3804 52.6296 31.1532 52.5147 30.2529C52.3866 29.2029 52.2333 28.5618 52.3866 27.3071C52.5402 26.0524 53.2306 24.2657 53.2177 24.1294C53.2051 23.9931 53.0642 23.352 51.6578 23.3385C50.2515 23.3248 49.0368 23.6249 48.8961 24.0203C48.7555 24.4157 48.487 25.316 48.308 26.2431C48.065 27.6072 45.4953 32.4757 44.0251 35.0261C43.5518 34.0308 43.1427 33.1578 43.053 32.4623C42.9253 31.4123 42.7717 30.7712 42.9253 29.5165C43.0788 28.2618 43.7692 26.4753 43.7563 26.3387C43.7435 26.2024 43.6028 25.5613 42.1964 25.5479C40.7898 25.5341 39.5752 25.8342 39.4348 26.2296C39.2941 26.6254 39.1406 27.5525 38.8466 28.4527C38.5524 29.353 35.1387 37.4814 34.2437 39.5814C33.882 40.4314 33.5026 41.2726 33.1058 42.1046C33.1058 42.1046 33.0929 42.1455 33.0545 42.2136C32.9299 42.4745 32.8021 42.7337 32.6712 42.9911V43.0045C32.4793 43.373 32.2747 43.7137 32.1724 43.7137C32.0957 43.7137 31.955 42.7319 32.1979 41.3953C32.7093 38.5723 33.924 34.1808 33.9114 34.0308C33.9114 33.9489 34.1414 33.1853 33.1187 32.7896C32.1212 32.3941 31.7633 33.0487 31.6737 33.0487C31.5843 33.0487 31.5201 33.2806 31.5201 33.2806C31.5201 33.2806 32.6328 28.3436 29.3979 28.3436C27.3779 28.3436 24.5904 30.703 23.2096 32.8305C21.6398 33.7417 20.0715 34.6555 18.5044 35.5719C17.7504 36.022 16.9703 36.4721 16.2415 36.8947C16.1902 36.8403 16.1392 36.7719 16.0879 36.7175C12.1754 32.2578 4.93889 29.1073 5.24571 23.1203C5.36088 20.9382 6.06391 15.2101 19.1438 8.25476C29.9092 2.5948 38.4759 4.16305 39.959 7.64086C42.0813 12.6053 35.369 21.8247 24.2452 23.161C20.0004 23.6658 17.7756 21.92 17.2132 21.2655C16.6251 20.5834 16.5354 20.5425 16.318 20.6791C15.9601 20.8838 16.1902 21.4974 16.318 21.8519C16.6506 22.779 18.0185 24.4157 20.3327 25.2206C22.3785 25.9296 27.3521 26.3253 33.3742 23.8431C40.1123 21.0607 45.3801 13.328 43.8331 6.85001C42.2858 0.27636 32.0573 -1.89204 22.3785 1.77646C16.6251 3.9589 10.3855 7.39547 5.89775 11.8689C0.566035 17.1875 -0.277936 21.8109 0.0672749 23.7477C1.30773 30.6211 10.1938 35.0945 13.7482 38.4086C13.5692 38.5177 13.4027 38.6133 13.2623 38.6952C11.485 39.6361 4.70857 43.4137 3.0209 47.4097C1.10318 51.9375 3.328 55.1837 4.79823 55.6198C9.36275 56.9701 14.055 54.5426 16.5738 50.5328C19.0925 46.5233 18.7857 41.3134 17.6223 38.9268C17.6094 38.8996 17.5968 38.8721 17.571 38.8449C18.0314 38.5586 18.5044 38.2585 18.9648 37.9722C19.8109 37.4387 20.6678 36.9248 21.5348 36.4309C21.0999 37.6993 20.7802 39.2132 20.6269 41.3953C20.435 43.9594 21.4194 47.2869 22.7108 48.596C23.2863 49.1693 23.9639 49.1827 24.3988 49.1827C25.9074 49.1827 26.5852 47.8461 27.3395 46.2641C28.26 44.3277 29.091 42.0774 29.091 42.0774C29.091 42.0774 28.0554 48.1599 30.8684 48.1599C31.8911 48.1599 32.9268 46.7414 33.3871 46.0187V46.0322C33.3871 46.0322 33.4126 45.9912 33.4639 45.8959C33.5662 45.7187 33.6301 45.6093 33.6301 45.6093V45.5824C34.0392 44.8184 34.9599 43.0864 36.3279 40.2087C38.0923 36.4993 39.7929 31.8624 39.7929 31.8624C39.7929 31.8624 39.9464 32.9943 40.4704 34.8764C40.7775 35.981 41.4164 37.1948 41.928 38.3676C41.5189 38.9815 41.2631 39.3223 41.2631 39.3223L41.276 39.336C40.9434 39.7996 40.5856 40.3041 40.1891 40.7954C38.7953 42.5681 37.1334 44.6005 36.9031 45.1866C36.6344 45.8822 36.6986 46.387 37.2102 46.7961C37.5809 47.0962 38.2456 47.1369 38.9234 47.0962C40.1765 47.0006 41.0585 46.6733 41.4931 46.4689C42.171 46.2097 42.9636 45.814 43.7051 45.2276C45.0733 44.1501 45.9041 42.6091 45.8276 40.5773C45.7892 39.4588 45.444 38.3404 45.022 37.2901C45.1501 37.0994 45.265 36.9085 45.393 36.7175C47.5537 33.3488 49.2287 29.6528 49.2287 29.6528C49.2287 29.6528 49.3823 30.7846 49.9063 32.667C50.1621 33.6216 50.6863 34.6582 51.1464 35.6672C49.1136 37.4267 47.8605 39.4723 47.413 40.8089C46.6077 43.2911 47.234 44.4093 48.4231 44.6684C48.96 44.7912 49.7272 44.5183 50.2899 44.2592C51.0058 44.0138 51.8498 43.5912 52.6553 42.9636C54.0236 41.8864 55.3402 40.386 55.2635 38.3542C55.2251 37.4267 54.995 36.5127 54.6753 35.6263C56.4014 34.8629 58.6262 34.44 61.4644 34.7945C67.5507 35.5581 68.7525 39.6086 68.5221 41.3137C68.2921 43.0182 67.0135 43.9457 66.5918 44.232C66.1696 44.5186 66.0292 44.614 66.0676 44.8184C66.1186 45.1185 66.3231 45.105 66.6812 45.0504C67.18 44.955 69.8778 43.6728 69.9927 40.536C70.1846 36.5265 66.6044 32.1487 60.2755 32.1897ZM13.3262 49.0736C11.306 51.4193 8.49327 52.3058 7.27859 51.5559C5.97452 50.751 6.4859 47.2869 8.96626 44.805C10.4749 43.2911 12.4184 41.8861 13.7098 41.0271C14.0038 40.8361 14.4386 40.5635 14.9629 40.2225C15.0523 40.1678 15.1036 40.1406 15.1036 40.1406L15.4104 39.9359C16.318 43.4818 15.4488 46.6052 13.3262 49.0736ZM28.0299 38.4086C27.3266 40.2362 25.8564 44.9141 24.9614 44.6549C24.1942 44.4367 23.7209 40.8908 24.8079 37.3858C25.3576 35.6263 26.521 33.526 27.1988 32.708C28.2984 31.3985 29.513 30.9619 29.807 31.4942C30.178 32.1897 28.4645 37.2629 28.0299 38.4086ZM40.1636 44.6002C39.8694 44.764 39.5883 44.8731 39.4603 44.7912C39.3709 44.7365 39.5883 44.5183 39.5883 44.5183C39.5883 44.5183 41.1098 42.7729 41.7106 41.9817C42.0561 41.5181 42.4649 40.9727 42.8998 40.3588V40.536C42.8998 42.6228 41.0073 44.0276 40.1633 44.6002H40.1636ZM49.5227 42.3227C49.3052 42.159 49.3436 41.6135 50.0724 39.9087C50.3537 39.2404 51.0184 38.1222 52.1566 37.0448C52.2843 37.4811 52.374 37.904 52.3611 38.2995C52.3482 40.9317 50.5841 41.9136 49.5227 42.3227Z" fill="#CD6799"/>
</svg>
