<svg width="71" height="71" viewBox="0 0 71 71" fill="none" xmlns="http://www.w3.org/2000/svg">
<path d="M64.0716 50.754C55.3821 62.3295 36.8275 58.4229 24.9283 58.9825C24.9283 58.9825 22.8201 59.1021 20.7014 59.4506C20.7014 59.4506 21.5038 59.1092 22.528 58.7537C30.8832 55.8642 34.832 55.2835 39.9106 52.6756C49.4483 47.7906 58.9438 37.1443 60.8759 26.0862C57.2439 36.7219 46.1998 45.876 36.1448 49.5926C29.2642 52.1336 16.8159 54.6043 16.8124 54.6043C16.6433 54.5177 16.4755 54.4285 16.3091 54.3368C7.84486 50.219 7.5985 31.8827 22.975 25.9735C29.7182 23.3832 36.1623 24.8051 43.4511 23.07C51.2221 21.2223 60.2248 15.3976 63.8815 7.78151C67.9817 19.9518 72.9089 38.9849 64.0716 50.754ZM64.2194 4.01569C63.2364 6.37284 61.9782 8.60557 60.4712 10.6675C57.1952 7.29106 53.2745 4.60702 48.9415 2.77458C44.6086 0.942139 39.9518 -0.0013784 35.2473 1.51142e-06C15.8094 1.51142e-06 3.85129e-06 15.8094 3.85129e-06 35.2438C-0.00226586 40.0916 0.998703 44.8874 2.93994 49.3295C4.88118 53.7716 7.72069 57.764 11.2798 61.0554L12.0541 61.7382C11.4898 61.1729 11.173 60.4066 11.1735 59.6078C11.174 58.809 11.4917 58.0431 12.0568 57.4785C12.6218 56.9139 13.388 56.5969 14.1868 56.597C14.9856 56.5972 15.7516 56.9146 16.3164 57.4794C16.8812 58.0443 17.1986 58.8103 17.1988 59.6091C17.199 60.4079 16.8819 61.174 16.3173 61.7391C15.7527 62.3041 14.9868 62.6218 14.188 62.6223C13.3892 62.6228 12.6229 62.3061 12.0576 61.7417L12.582 62.2063C18.9185 67.5634 26.9498 70.499 35.2473 70.4911C53.823 70.4911 69.0798 56.0332 70.3855 37.7883C71.3498 28.8525 68.7102 17.5057 64.2194 4.01569Z" fill="#32A73E"/>
</svg>
