<svg width="67" height="67" viewBox="0 0 67 67" fill="none" xmlns="http://www.w3.org/2000/svg">
<path d="M0 33.5V67H67V0H0V33.5Z" fill="#007ACC"/>
<path d="M14.8164 33.7224L14.7952 36.466H23.5156V61.2455H29.6838V36.466H38.4046V33.7755C38.4046 32.2863 38.3726 31.0421 38.3302 31.0102C38.2983 30.9678 32.9912 30.9463 26.5573 30.9571L14.848 30.989L14.8164 33.7221V33.7224ZM54.0624 30.911C55.7638 31.3363 57.0614 32.0913 58.2525 33.3251C58.8694 33.9846 59.7838 35.1862 59.8584 35.4733C59.8794 35.5583 56.9656 37.5152 55.2003 38.6108C55.1365 38.6532 54.8811 38.3768 54.594 37.9512C53.7326 36.6963 52.8287 36.154 51.446 36.0582C49.4151 35.92 48.1067 36.9834 48.1175 38.7594C48.1175 39.2808 48.1918 39.5891 48.4046 40.0144C48.8513 40.9398 49.6807 41.4928 52.2864 42.62C57.0826 44.6832 59.135 46.0444 60.4114 47.98C61.8365 50.1389 62.1555 53.5847 61.1877 56.1477C60.1243 58.934 57.487 60.827 53.775 61.4544C52.6266 61.6564 49.9042 61.6245 48.6705 61.4012C45.98 60.9228 43.4275 59.5933 41.8535 57.8492C41.2366 57.1687 40.0348 55.3924 40.1094 55.265C40.1413 55.2223 40.4177 55.0522 40.726 54.8713C41.0238 54.7012 42.1513 54.0524 43.2147 53.4358L45.1396 52.3191L45.5437 52.9147C46.1075 53.7758 47.3409 54.9564 48.0855 55.35C50.223 56.4773 53.1584 56.3179 54.6047 55.0203C55.2215 54.4568 55.4767 53.8718 55.4767 53.0103C55.4767 52.234 55.3809 51.8938 54.9768 51.3088C54.456 50.5642 53.3924 49.9369 50.3719 48.6288C46.9156 47.1397 45.4267 46.2147 44.0655 44.747C43.2785 43.8964 42.5339 42.535 42.2256 41.397C41.9705 40.4504 41.9063 38.0789 42.1087 37.1218C42.8213 33.7823 45.3417 31.4533 48.9788 30.7621C50.1591 30.5388 52.903 30.6239 54.0624 30.911Z" fill="white"/>
</svg>
